<svg xmlns="http://www.w3.org/2000/svg" viewBox="0 0 400 400">
  <!-- Body -->
  <ellipse cx="195" cy="255" rx="105" ry="78" fill="none" stroke="#1a1a1a" stroke-width="2.5"/>
  <!-- Tail feathers -->
  <path d="M298,258 Q338,235 348,258 Q338,280 298,258" fill="none" stroke="#1a1a1a" stroke-width="2"/>
  <path d="M298,255 Q345,222 360,240" fill="none" stroke="#1a1a1a" stroke-width="1.5"/>
  <path d="M298,262 Q345,290 358,275" fill="none" stroke="#1a1a1a" stroke-width="1.5"/>
  <!-- Wing -->
  <path d="M142,215 Q175,158 248,195 Q200,218 142,215" fill="none" stroke="#1a1a1a" stroke-width="2"/>
  <!-- Wing feather details -->
  <path d="M165,205 Q188,172 218,192" fill="none" stroke="#1a1a1a" stroke-width="1.5"/>
  <!-- Head -->
  <circle cx="118" cy="188" r="52" fill="none" stroke="#1a1a1a" stroke-width="2.5"/>
  <!-- Eye -->
  <circle cx="105" cy="178" r="12" fill="none" stroke="#1a1a1a" stroke-width="2"/>
  <circle cx="107" cy="178" r="6" fill="#1a1a1a"/>
  <circle cx="105" cy="175" r="2" fill="white"/>
  <!-- Beak -->
  <polygon points="72,185 45,178 45,192" fill="none" stroke="#1a1a1a" stroke-width="2"/>
  <!-- Feet/perch grip -->
  <line x1="160" y1="322" x2="145" y2="355" stroke="#1a1a1a" stroke-width="4"/>
  <line x1="145" y1="355" x2="122" y2="368" stroke="#1a1a1a" stroke-width="2.5"/>
  <line x1="145" y1="355" x2="140" y2="372" stroke="#1a1a1a" stroke-width="2.5"/>
  <line x1="145" y1="355" x2="158" y2="370" stroke="#1a1a1a" stroke-width="2.5"/>
  <line x1="230" y1="322" x2="245" y2="355" stroke="#1a1a1a" stroke-width="4"/>
  <line x1="245" y1="355" x2="268" y2="368" stroke="#1a1a1a" stroke-width="2.5"/>
  <line x1="245" y1="355" x2="250" y2="372" stroke="#1a1a1a" stroke-width="2.5"/>
  <line x1="245" y1="355" x2="232" y2="370" stroke="#1a1a1a" stroke-width="2.5"/>
</svg>