<svg xmlns="http://www.w3.org/2000/svg" viewBox="0 0 400 400">
  <!-- Body (long, low) -->
  <ellipse cx="195" cy="255" rx="155" ry="62" fill="none" stroke="#1a1a1a" stroke-width="2.5"/>
  <!-- Tail -->
  <path d="M348,255 Q378,248 390,268 Q382,282 360,275 Q348,270 348,255" fill="none" stroke="#1a1a1a" stroke-width="2"/>
  <!-- Scales on back -->
  <polygon points="148,195 155,175 162,195" fill="none" stroke="#1a1a1a" stroke-width="1.5"/>
  <polygon points="170,192 177,172 184,192" fill="none" stroke="#1a1a1a" stroke-width="1.5"/>
  <polygon points="192,190 199,170 206,190" fill="none" stroke="#1a1a1a" stroke-width="1.5"/>
  <polygon points="214,192 221,172 228,192" fill="none" stroke="#1a1a1a" stroke-width="1.5"/>
  <polygon points="235,195 242,175 249,195" fill="none" stroke="#1a1a1a" stroke-width="1.5"/>
  <!-- Head -->
  <ellipse cx="68" cy="248" rx="62" ry="32" fill="none" stroke="#1a1a1a" stroke-width="2.5"/>
  <!-- Snout (flat) -->
  <ellipse cx="38" cy="248" rx="32" ry="22" fill="none" stroke="#1a1a1a" stroke-width="2"/>
  <!-- Nostrils -->
  <ellipse cx="28" cy="238" rx="5" ry="4" fill="#1a1a1a"/>
  <ellipse cx="42" cy="238" rx="5" ry="4" fill="#1a1a1a"/>
  <!-- Eye (on top of head) -->
  <circle cx="92" cy="225" r="12" fill="none" stroke="#1a1a1a" stroke-width="2"/>
  <circle cx="94" cy="225" r="5" fill="#1a1a1a"/>
  <!-- Teeth (upper) -->
  <line x1="22" y1="232" x2="20" y2="222" stroke="#1a1a1a" stroke-width="2"/>
  <line x1="35" y1="228" x2="33" y2="218" stroke="#1a1a1a" stroke-width="2"/>
  <line x1="50" y1="228" x2="48" y2="218" stroke="#1a1a1a" stroke-width="2"/>
  <!-- Legs -->
  <path d="M118,302 Q108,330 95,345" fill="none" stroke="#1a1a1a" stroke-width="2.5"/>
  <path d="M175,308 Q168,338 158,352" fill="none" stroke="#1a1a1a" stroke-width="2.5"/>
  <path d="M248,305 Q258,335 268,348" fill="none" stroke="#1a1a1a" stroke-width="2.5"/>
  <path d="M305,298 Q318,325 330,338" fill="none" stroke="#1a1a1a" stroke-width="2.5"/>
</svg>