<svg xmlns="http://www.w3.org/2000/svg" viewBox="0 0 400 400">
  <!-- Body -->
  <ellipse cx="200" cy="278" rx="108" ry="88" fill="none" stroke="#1a1a1a" stroke-width="2.5"/>
  <!-- Head -->
  <circle cx="200" cy="152" r="72" fill="none" stroke="#1a1a1a" stroke-width="2.5"/>
  <!-- Pointed ears -->
  <polygon points="155,98 135,40 175,88" fill="none" stroke="#1a1a1a" stroke-width="2"/>
  <polygon points="245,98 265,40 225,88" fill="none" stroke="#1a1a1a" stroke-width="2"/>
  <!-- Eyes -->
  <ellipse cx="178" cy="145" rx="12" ry="13" fill="none" stroke="#1a1a1a" stroke-width="2"/>
  <ellipse cx="222" cy="145" rx="12" ry="13" fill="none" stroke="#1a1a1a" stroke-width="2"/>
  <ellipse cx="178" cy="147" rx="5" ry="9" fill="#1a1a1a"/>
  <ellipse cx="222" cy="147" rx="5" ry="9" fill="#1a1a1a"/>
  <!-- Muzzle -->
  <ellipse cx="200" cy="175" rx="28" ry="20" fill="none" stroke="#1a1a1a" stroke-width="2"/>
  <!-- Nose -->
  <ellipse cx="200" cy="167" rx="10" ry="7" fill="#1a1a1a"/>
  <!-- Mouth -->
  <path d="M190,176 Q200,186 210,176" fill="none" stroke="#1a1a1a" stroke-width="2"/>
  <!-- Whiskers -->
  <line x1="172" y1="170" x2="125" y2="160" stroke="#1a1a1a" stroke-width="1.5"/>
  <line x1="172" y1="175" x2="125" y2="175" stroke="#1a1a1a" stroke-width="1.5"/>
  <line x1="228" y1="170" x2="275" y2="160" stroke="#1a1a1a" stroke-width="1.5"/>
  <line x1="228" y1="175" x2="275" y2="175" stroke="#1a1a1a" stroke-width="1.5"/>
  <!-- Paws -->
  <ellipse cx="155" cy="352" rx="30" ry="17" fill="none" stroke="#1a1a1a" stroke-width="2"/>
  <ellipse cx="245" cy="352" rx="30" ry="17" fill="none" stroke="#1a1a1a" stroke-width="2"/>
  <!-- Bushy tail -->
  <path d="M308,278 Q368,230 355,165 Q345,130 370,110" fill="none" stroke="#1a1a1a" stroke-width="3"/>
  <ellipse cx="362" cy="108" rx="20" ry="15" fill="none" stroke="#1a1a1a" stroke-width="2"/>
</svg>
