<svg xmlns="http://www.w3.org/2000/svg" viewBox="0 0 400 400">
  <!-- Body -->
  <ellipse cx="210" cy="268" rx="130" ry="88" fill="none" stroke="#1a1a1a" stroke-width="2.5"/>
  <!-- Neck -->
  <path d="M130,215 Q118,165 135,118" fill="none" stroke="#1a1a1a" stroke-width="2.5"/>
  <path d="M158,208 Q152,160 162,115" fill="none" stroke="#1a1a1a" stroke-width="2.5"/>
  <!-- Head -->
  <ellipse cx="148" cy="100" rx="38" ry="45" fill="none" stroke="#1a1a1a" stroke-width="2.5"/>
  <!-- Nostril -->
  <ellipse cx="140" cy="130" rx="7" ry="5" fill="none" stroke="#1a1a1a" stroke-width="2"/>
  <!-- Eye -->
  <circle cx="162" cy="92" r="9" fill="none" stroke="#1a1a1a" stroke-width="2"/>
  <circle cx="163" cy="92" r="4" fill="#1a1a1a"/>
  <!-- Ear -->
  <polygon points="148,62 140,35 162,58" fill="none" stroke="#1a1a1a" stroke-width="2"/>
  <!-- Mane -->
  <path d="M162,65 Q172,80 165,95 Q175,110 168,125" fill="none" stroke="#1a1a1a" stroke-width="2"/>
  <path d="M155,62 Q168,78 158,92 Q170,108 160,122" fill="none" stroke="#1a1a1a" stroke-width="2"/>
  <!-- Legs -->
  <line x1="118" y1="340" x2="112" y2="392" stroke="#1a1a1a" stroke-width="7" stroke-linecap="round"/>
  <line x1="158" y1="342" x2="155" y2="394" stroke="#1a1a1a" stroke-width="7" stroke-linecap="round"/>
  <line x1="248" y1="342" x2="252" y2="394" stroke="#1a1a1a" stroke-width="7" stroke-linecap="round"/>
  <line x1="295" y1="338" x2="300" y2="390" stroke="#1a1a1a" stroke-width="7" stroke-linecap="round"/>
  <!-- Tail -->
  <path d="M338,265 Q375,240 370,290 Q368,320 355,345" fill="none" stroke="#1a1a1a" stroke-width="2.5"/>
</svg>
