<svg xmlns="http://www.w3.org/2000/svg" viewBox="0 0 400 400">
  <!-- Mane -->
  <circle cx="200" cy="155" r="105" fill="none" stroke="#1a1a1a" stroke-width="2"/>
  <!-- Body -->
  <ellipse cx="200" cy="295" rx="108" ry="88" fill="none" stroke="#1a1a1a" stroke-width="2.5"/>
  <!-- Head -->
  <circle cx="200" cy="155" r="72" fill="none" stroke="#1a1a1a" stroke-width="2.5"/>
  <!-- Ears (inside mane) -->
  <polygon points="170,92 155,68 185,88" fill="none" stroke="#1a1a1a" stroke-width="2"/>
  <polygon points="230,92 245,68 215,88" fill="none" stroke="#1a1a1a" stroke-width="2"/>
  <!-- Eyes -->
  <ellipse cx="178" cy="145" rx="13" ry="12" fill="none" stroke="#1a1a1a" stroke-width="2"/>
  <ellipse cx="222" cy="145" rx="13" ry="12" fill="none" stroke="#1a1a1a" stroke-width="2"/>
  <ellipse cx="178" cy="147" rx="5" ry="9" fill="#1a1a1a"/>
  <ellipse cx="222" cy="147" rx="5" ry="9" fill="#1a1a1a"/>
  <!-- Snout -->
  <ellipse cx="200" cy="175" rx="28" ry="20" fill="none" stroke="#1a1a1a" stroke-width="2"/>
  <!-- Nose -->
  <polygon points="200,165 193,174 207,174" fill="#1a1a1a"/>
  <!-- Mouth -->
  <path d="M190,175 Q200,186 210,175" fill="none" stroke="#1a1a1a" stroke-width="2"/>
  <!-- Whiskers -->
  <line x1="172" y1="170" x2="128" y2="162" stroke="#1a1a1a" stroke-width="1.5"/>
  <line x1="172" y1="175" x2="128" y2="175" stroke="#1a1a1a" stroke-width="1.5"/>
  <line x1="228" y1="170" x2="272" y2="162" stroke="#1a1a1a" stroke-width="1.5"/>
  <line x1="228" y1="175" x2="272" y2="175" stroke="#1a1a1a" stroke-width="1.5"/>
  <!-- Paws -->
  <ellipse cx="155" cy="365" rx="32" ry="18" fill="none" stroke="#1a1a1a" stroke-width="2"/>
  <ellipse cx="245" cy="365" rx="32" ry="18" fill="none" stroke="#1a1a1a" stroke-width="2"/>
  <!-- Tail with tuft -->
  <path d="M308,290 Q360,255 355,205" fill="none" stroke="#1a1a1a" stroke-width="2.5"/>
  <ellipse cx="357" cy="198" rx="14" ry="18" fill="none" stroke="#1a1a1a" stroke-width="2"/>
</svg>
