<svg xmlns="http://www.w3.org/2000/svg" viewBox="0 0 400 400">
  <!-- Shell (dome) -->
  <ellipse cx="200" cy="235" rx="128" ry="98" fill="none" stroke="#1a1a1a" stroke-width="2.5"/>
  <!-- Shell pattern -->
  <ellipse cx="200" cy="220" rx="60" ry="48" fill="none" stroke="#1a1a1a" stroke-width="1.5"/>
  <line x1="140" y1="200" x2="200" y2="172" stroke="#1a1a1a" stroke-width="1.5"/>
  <line x1="260" y1="200" x2="200" y2="172" stroke="#1a1a1a" stroke-width="1.5"/>
  <line x1="128" y1="240" x2="140" y2="200" stroke="#1a1a1a" stroke-width="1.5"/>
  <line x1="272" y1="240" x2="260" y2="200" stroke="#1a1a1a" stroke-width="1.5"/>
  <line x1="140" y1="278" x2="128" y2="240" stroke="#1a1a1a" stroke-width="1.5"/>
  <line x1="260" y1="278" x2="272" y2="240" stroke="#1a1a1a" stroke-width="1.5"/>
  <!-- Head -->
  <ellipse cx="200" cy="125" rx="42" ry="36" fill="none" stroke="#1a1a1a" stroke-width="2.5"/>
  <!-- Neck -->
  <path d="M175,155 L175,170" stroke="#1a1a1a" stroke-width="10" stroke-linecap="round"/>
  <path d="M225,155 L225,170" stroke="#1a1a1a" stroke-width="10" stroke-linecap="round"/>
  <!-- Eyes -->
  <circle cx="185" cy="118" r="9" fill="none" stroke="#1a1a1a" stroke-width="2"/>
  <circle cx="215" cy="118" r="9" fill="none" stroke="#1a1a1a" stroke-width="2"/>
  <circle cx="187" cy="118" r="4" fill="#1a1a1a"/>
  <circle cx="217" cy="118" r="4" fill="#1a1a1a"/>
  <!-- Mouth -->
  <path d="M188,138 Q200,146 212,138" fill="none" stroke="#1a1a1a" stroke-width="2"/>
  <!-- Four flippers -->
  <ellipse cx="88" cy="205" rx="30" ry="48" fill="none" stroke="#1a1a1a" stroke-width="2"/>
  <ellipse cx="312" cy="205" rx="30" ry="48" fill="none" stroke="#1a1a1a" stroke-width="2"/>
  <ellipse cx="140" cy="318" rx="45" ry="22" fill="none" stroke="#1a1a1a" stroke-width="2"/>
  <ellipse cx="260" cy="318" rx="45" ry="22" fill="none" stroke="#1a1a1a" stroke-width="2"/>
  <!-- Tail -->
  <path d="M200,332 Q200,355 208,368" fill="none" stroke="#1a1a1a" stroke-width="2"/>
</svg>